<svg width="680" height="680" viewBox="0 0 680 680" fill="none" xmlns="http://www.w3.org/2000/svg">
<rect width="680" height="680" fill="white"/>
<path d="M350.568 349.451C350.615 349.486 350.697 349.539 350.815 349.609C350.943 349.668 351.078 349.738 351.219 349.82C351.359 349.891 351.488 349.961 351.606 350.031C351.734 350.09 351.822 350.137 351.869 350.172C351.893 350.195 351.934 350.242 351.992 350.312C352.051 350.383 352.092 350.418 352.115 350.418C352.139 350.441 352.186 350.471 352.256 350.506C352.338 350.529 352.391 350.553 352.414 350.576C352.426 350.576 352.455 350.582 352.502 350.594C352.561 350.605 352.619 350.617 352.678 350.629C352.736 350.629 352.795 350.635 352.854 350.646C352.912 350.658 352.947 350.664 352.959 350.664C352.971 350.676 353 350.699 353.047 350.734C353.106 350.77 353.158 350.805 353.205 350.84C353.264 350.875 353.317 350.904 353.363 350.928C353.41 350.951 353.44 350.963 353.451 350.963C353.475 350.963 353.522 350.969 353.592 350.98C353.674 350.992 353.738 350.998 353.785 350.998C353.832 350.998 353.897 350.992 353.979 350.98C354.061 350.969 354.125 350.963 354.172 350.963C354.184 350.963 354.219 350.957 354.277 350.945C354.336 350.934 354.4 350.922 354.471 350.91C354.553 350.887 354.629 350.869 354.699 350.857C354.77 350.846 354.817 350.84 354.84 350.84C355.098 350.793 355.35 350.77 355.596 350.77C355.854 350.77 356.1 350.758 356.334 350.734C356.568 350.711 356.797 350.664 357.02 350.594C357.242 350.512 357.453 350.371 357.652 350.172C357.652 350.148 357.67 350.113 357.705 350.066C357.752 350.008 357.793 349.949 357.828 349.891C357.875 349.82 357.916 349.762 357.951 349.715C357.986 349.668 358.004 349.639 358.004 349.627C358.051 349.58 358.145 349.492 358.285 349.363C358.426 349.234 358.572 349.094 358.725 348.941C358.877 348.789 359.018 348.654 359.147 348.537C359.287 348.408 359.375 348.326 359.41 348.291C359.598 348.057 359.75 347.811 359.867 347.553C359.996 347.283 360.137 347.031 360.289 346.797C360.324 346.773 360.377 346.709 360.447 346.604C360.529 346.486 360.57 346.422 360.57 346.41C360.805 345.93 361.016 345.467 361.203 345.021C361.402 344.564 361.572 344.113 361.713 343.668C361.854 343.211 361.965 342.748 362.047 342.279C362.129 341.811 362.17 341.312 362.17 340.785C362.17 340.047 362.117 339.209 362.012 338.271C361.918 337.334 361.76 336.396 361.537 335.459C361.315 334.51 361.027 333.607 360.676 332.752C360.336 331.896 359.914 331.176 359.41 330.59C359.375 330.566 359.317 330.525 359.234 330.467C359.152 330.408 359.1 330.367 359.076 330.344C359.076 330.297 359.059 330.221 359.024 330.115C359 329.998 358.977 329.922 358.953 329.887C358.942 329.887 358.912 329.863 358.865 329.816C358.818 329.77 358.766 329.717 358.707 329.658C358.66 329.6 358.608 329.547 358.549 329.5C358.502 329.441 358.467 329.4 358.443 329.377C358.221 329.189 357.981 329.043 357.723 328.938C357.465 328.832 357.207 328.715 356.949 328.586C356.457 328.316 355.971 328.088 355.49 327.9C355.01 327.713 354.471 327.619 353.873 327.619C353.533 327.619 353.199 327.666 352.871 327.76C352.555 327.854 352.221 327.947 351.869 328.041C351.682 328.1 351.488 328.205 351.289 328.357C351.09 328.51 350.885 328.68 350.674 328.867C350.475 329.055 350.281 329.242 350.094 329.43C349.906 329.617 349.736 329.77 349.584 329.887C349.561 329.91 349.514 329.951 349.443 330.01C349.373 330.068 349.297 330.133 349.215 330.203C349.145 330.262 349.074 330.32 349.004 330.379C348.934 330.426 348.893 330.455 348.881 330.467C348.775 330.654 348.67 330.83 348.565 330.994C348.471 331.135 348.383 331.281 348.301 331.434C348.219 331.586 348.149 331.709 348.09 331.803C347.984 331.99 347.914 332.189 347.879 332.4C347.856 332.6 347.797 332.805 347.703 333.016C347.492 333.578 347.258 334.146 347 334.721C346.754 335.295 346.59 335.887 346.508 336.496C346.508 336.531 346.502 336.625 346.49 336.777C346.479 336.93 346.461 337.1 346.438 337.287C346.426 337.463 346.414 337.639 346.402 337.814C346.391 337.979 346.379 338.084 346.367 338.131L346.297 338.236C346.262 338.295 346.244 338.342 346.244 338.377V338.992V339.555C346.268 339.578 346.291 339.607 346.315 339.643C346.35 339.666 346.367 339.689 346.367 339.713C346.531 340.088 346.625 340.48 346.649 340.891C346.684 341.301 346.731 341.711 346.789 342.121C346.871 342.672 347 343.188 347.176 343.668C347.363 344.148 347.539 344.664 347.703 345.215C347.703 345.238 347.727 345.326 347.774 345.479C347.832 345.619 347.861 345.713 347.861 345.76C347.873 345.783 347.932 345.865 348.037 346.006C348.154 346.146 348.225 346.246 348.248 346.305C348.272 346.387 348.295 346.463 348.318 346.533C348.342 346.592 348.359 346.65 348.371 346.709C348.395 346.756 348.406 346.785 348.406 346.797C348.418 346.832 348.471 346.914 348.565 347.043C348.658 347.16 348.758 347.289 348.863 347.43C348.969 347.559 349.063 347.682 349.145 347.799C349.238 347.904 349.297 347.975 349.32 348.01L349.443 348.291C349.467 348.314 349.525 348.373 349.619 348.467C349.713 348.549 349.813 348.643 349.918 348.748C350.035 348.854 350.141 348.953 350.234 349.047C350.328 349.141 350.387 349.193 350.41 349.205C350.41 349.229 350.428 349.27 350.463 349.328C350.498 349.387 350.533 349.428 350.568 349.451ZM351.623 352C351.576 352 351.518 351.988 351.447 351.965C351.377 351.93 351.336 351.912 351.324 351.912C351.301 351.9 351.231 351.877 351.113 351.842C350.996 351.795 350.867 351.754 350.727 351.719C350.586 351.672 350.451 351.631 350.322 351.596C350.205 351.549 350.135 351.52 350.111 351.508C349.971 351.438 349.842 351.373 349.725 351.314C349.619 351.244 349.514 351.174 349.408 351.104C349.315 351.033 349.215 350.963 349.109 350.893C349.004 350.811 348.887 350.734 348.758 350.664C348.734 350.652 348.688 350.635 348.617 350.611C348.547 350.576 348.465 350.541 348.371 350.506C348.289 350.459 348.213 350.418 348.143 350.383C348.072 350.348 348.025 350.318 348.002 350.295C347.533 350.084 347.07 349.803 346.613 349.451C346.168 349.1 345.746 348.713 345.348 348.291C344.949 347.857 344.592 347.4 344.275 346.92C343.971 346.428 343.725 345.941 343.537 345.461C343.537 345.438 343.525 345.379 343.502 345.285C343.49 345.191 343.467 345.092 343.432 344.986C343.408 344.881 343.379 344.781 343.344 344.688C343.32 344.594 343.303 344.535 343.291 344.512C343.291 344.512 343.279 344.494 343.256 344.459C343.233 344.412 343.203 344.365 343.168 344.318C343.133 344.271 343.098 344.23 343.063 344.195C343.027 344.148 343.004 344.125 342.992 344.125C342.992 344.113 342.986 344.084 342.975 344.037C342.963 343.979 342.951 343.92 342.94 343.861C342.94 343.803 342.934 343.744 342.922 343.686C342.91 343.627 342.904 343.592 342.904 343.58C342.893 343.568 342.875 343.539 342.852 343.492C342.828 343.445 342.799 343.393 342.764 343.334C342.74 343.275 342.717 343.223 342.693 343.176C342.67 343.117 342.658 343.07 342.658 343.035C342.623 343 342.582 342.9 342.535 342.736C342.488 342.561 342.465 342.438 342.465 342.367C342.453 342.238 342.43 342.045 342.395 341.787C342.371 341.518 342.348 341.248 342.324 340.979C342.301 340.709 342.277 340.463 342.254 340.24C342.231 340.006 342.219 339.859 342.219 339.801V338.834C342.219 338.131 342.277 337.445 342.395 336.777C342.512 336.109 342.682 335.418 342.904 334.703C342.951 334.574 343.01 334.475 343.08 334.404C343.162 334.334 343.233 334.217 343.291 334.053C343.338 333.936 343.385 333.771 343.432 333.561C343.49 333.338 343.549 333.115 343.608 332.893C343.678 332.658 343.748 332.441 343.818 332.242C343.9 332.031 343.988 331.885 344.082 331.803L346.789 329.131C347.082 329.002 347.358 328.814 347.615 328.568C347.873 328.322 348.137 328.094 348.406 327.883C348.418 327.883 348.453 327.877 348.512 327.865C348.582 327.842 348.629 327.818 348.652 327.795C348.992 327.643 349.344 327.484 349.707 327.32C350.07 327.145 350.428 327.027 350.779 326.969C350.791 326.969 350.815 326.963 350.85 326.951C350.885 326.928 350.932 326.916 350.99 326.916C351.084 326.916 351.178 326.904 351.272 326.881C351.365 326.857 351.424 326.846 351.447 326.846C351.459 326.846 351.512 326.84 351.606 326.828C351.699 326.816 351.805 326.805 351.922 326.793C352.039 326.77 352.156 326.746 352.274 326.723C352.402 326.699 352.502 326.682 352.572 326.67C352.572 326.635 352.631 326.611 352.748 326.6C352.865 326.588 352.936 326.582 352.959 326.582C352.983 326.582 353.035 326.582 353.117 326.582C353.211 326.57 353.311 326.559 353.416 326.547C353.522 326.535 353.615 326.529 353.697 326.529C353.791 326.518 353.85 326.512 353.873 326.512C353.897 326.512 353.961 326.5 354.067 326.477C354.172 326.441 354.242 326.424 354.277 326.424H354.453C354.805 326.424 355.221 326.447 355.701 326.494C356.193 326.541 356.686 326.617 357.178 326.723C357.682 326.816 358.162 326.939 358.619 327.092C359.088 327.232 359.475 327.408 359.779 327.619C359.779 327.619 359.797 327.643 359.832 327.689C359.879 327.725 359.926 327.771 359.973 327.83C360.02 327.877 360.061 327.924 360.096 327.971C360.143 328.006 360.166 328.029 360.166 328.041C360.295 328.135 360.424 328.211 360.553 328.27C360.682 328.316 360.811 328.363 360.94 328.41C361.068 328.457 361.192 328.51 361.309 328.568C361.426 328.627 361.543 328.715 361.66 328.832C362.082 329.23 362.451 329.617 362.768 329.992C363.096 330.355 363.389 330.73 363.647 331.117C363.916 331.504 364.168 331.92 364.402 332.365C364.637 332.799 364.877 333.279 365.123 333.807C365.135 333.83 365.164 333.889 365.211 333.982C365.258 334.064 365.299 334.158 365.334 334.264C365.381 334.357 365.422 334.451 365.457 334.545C365.504 334.639 365.533 334.691 365.545 334.703C365.545 334.738 365.563 334.779 365.598 334.826C365.621 334.861 365.645 334.891 365.668 334.914C365.809 335.113 365.891 335.336 365.914 335.582C365.949 335.828 365.967 336.08 365.967 336.338C365.979 336.596 365.99 336.854 366.002 337.111C366.014 337.369 366.067 337.609 366.16 337.832C366.172 337.891 366.178 337.99 366.178 338.131C366.19 338.26 366.195 338.406 366.195 338.57C366.207 338.723 366.213 338.869 366.213 339.01C366.213 339.15 366.213 339.244 366.213 339.291C366.213 339.947 366.19 340.604 366.143 341.26C366.108 341.916 366.043 342.566 365.949 343.211C365.949 343.234 365.932 343.293 365.897 343.387C365.861 343.48 365.826 343.545 365.791 343.58C365.791 343.592 365.779 343.627 365.756 343.686C365.733 343.744 365.703 343.803 365.668 343.861C365.633 343.92 365.604 343.979 365.58 344.037C365.557 344.084 365.545 344.113 365.545 344.125C365.533 344.148 365.516 344.207 365.492 344.301C365.481 344.395 365.469 344.494 365.457 344.6C365.445 344.705 365.434 344.805 365.422 344.898C365.41 344.992 365.404 345.051 365.404 345.074C365.322 345.344 365.182 345.596 364.983 345.83C364.783 346.053 364.619 346.293 364.49 346.551C364.326 346.797 364.168 347.049 364.016 347.307C363.863 347.564 363.693 347.799 363.506 348.01C363.494 348.045 363.453 348.104 363.383 348.186C363.324 348.256 363.289 348.291 363.277 348.291C362.82 348.643 362.393 348.994 361.994 349.346C361.596 349.686 361.168 350.002 360.711 350.295C360.582 350.377 360.447 350.494 360.307 350.646C360.178 350.787 360.049 350.893 359.92 350.963C359.885 350.986 359.791 351.027 359.639 351.086C359.498 351.145 359.34 351.215 359.164 351.297C359 351.367 358.848 351.438 358.707 351.508C358.567 351.566 358.479 351.607 358.443 351.631C358.42 351.631 358.391 351.637 358.356 351.648C358.332 351.66 358.309 351.672 358.285 351.684C358.25 351.695 358.221 351.707 358.197 351.719C358.162 351.742 358.08 351.766 357.951 351.789C357.834 351.801 357.705 351.818 357.565 351.842C357.424 351.865 357.295 351.883 357.178 351.895C357.061 351.906 356.984 351.912 356.949 351.912C356.926 351.936 356.861 351.959 356.756 351.982C356.65 351.994 356.58 352 356.545 352C356.275 352.105 355.971 352.182 355.631 352.229C355.303 352.275 355.004 352.299 354.734 352.299C354.664 352.299 354.565 352.293 354.436 352.281C354.318 352.281 354.201 352.275 354.084 352.264C353.967 352.264 353.861 352.258 353.768 352.246C353.686 352.246 353.639 352.246 353.627 352.246C353.545 352.246 353.404 352.234 353.205 352.211C353.018 352.199 352.818 352.182 352.608 352.158C352.397 352.135 352.197 352.105 352.01 352.07C351.822 352.047 351.693 352.023 351.623 352Z" fill="black"/>
<path d="M346.057 361.336C346.161 361.414 346.343 361.531 346.604 361.688C346.89 361.818 347.19 361.974 347.502 362.156C347.815 362.312 348.101 362.469 348.361 362.625C348.648 362.755 348.843 362.859 348.947 362.938C348.999 362.99 349.091 363.094 349.221 363.25C349.351 363.406 349.442 363.484 349.494 363.484C349.546 363.536 349.65 363.602 349.807 363.68C349.989 363.732 350.106 363.784 350.158 363.836C350.184 363.836 350.249 363.849 350.354 363.875C350.484 363.901 350.614 363.927 350.744 363.953C350.874 363.953 351.005 363.966 351.135 363.992C351.265 364.018 351.343 364.031 351.369 364.031C351.395 364.057 351.46 364.109 351.565 364.188C351.695 364.266 351.812 364.344 351.916 364.422C352.046 364.5 352.164 364.565 352.268 364.617C352.372 364.669 352.437 364.695 352.463 364.695C352.515 364.695 352.619 364.708 352.775 364.734C352.958 364.76 353.101 364.773 353.205 364.773C353.309 364.773 353.453 364.76 353.635 364.734C353.817 364.708 353.96 364.695 354.065 364.695C354.091 364.695 354.169 364.682 354.299 364.656C354.429 364.63 354.572 364.604 354.729 364.578C354.911 364.526 355.08 364.487 355.236 364.461C355.393 364.435 355.497 364.422 355.549 364.422C356.122 364.318 356.682 364.266 357.229 364.266C357.802 364.266 358.348 364.24 358.869 364.188C359.39 364.135 359.898 364.031 360.393 363.875C360.887 363.693 361.356 363.38 361.799 362.938C361.799 362.885 361.838 362.807 361.916 362.703C362.02 362.573 362.111 362.443 362.19 362.312C362.294 362.156 362.385 362.026 362.463 361.922C362.541 361.818 362.58 361.753 362.58 361.727C362.684 361.622 362.893 361.427 363.205 361.141C363.518 360.854 363.843 360.542 364.182 360.203C364.52 359.865 364.833 359.565 365.119 359.305C365.432 359.018 365.627 358.836 365.705 358.758C366.122 358.237 366.46 357.69 366.721 357.117C367.007 356.518 367.32 355.958 367.658 355.438C367.736 355.385 367.854 355.242 368.01 355.008C368.192 354.747 368.283 354.604 368.283 354.578C368.804 353.51 369.273 352.482 369.69 351.492C370.132 350.477 370.51 349.474 370.822 348.484C371.135 347.469 371.382 346.44 371.565 345.398C371.747 344.357 371.838 343.25 371.838 342.078C371.838 340.438 371.721 338.576 371.486 336.492C371.278 334.409 370.927 332.326 370.432 330.242C369.937 328.133 369.299 326.128 368.518 324.227C367.762 322.326 366.825 320.724 365.705 319.422C365.627 319.37 365.497 319.279 365.315 319.148C365.132 319.018 365.015 318.927 364.963 318.875C364.963 318.771 364.924 318.602 364.846 318.367C364.794 318.107 364.742 317.938 364.69 317.859C364.664 317.859 364.598 317.807 364.494 317.703C364.39 317.599 364.273 317.482 364.143 317.352C364.039 317.221 363.921 317.104 363.791 317C363.687 316.87 363.609 316.779 363.557 316.727C363.062 316.31 362.528 315.984 361.955 315.75C361.382 315.516 360.809 315.255 360.236 314.969C359.143 314.37 358.062 313.862 356.994 313.445C355.927 313.029 354.729 312.82 353.4 312.82C352.645 312.82 351.903 312.924 351.174 313.133C350.471 313.341 349.729 313.549 348.947 313.758C348.531 313.888 348.101 314.122 347.658 314.461C347.216 314.799 346.76 315.177 346.291 315.594C345.848 316.01 345.419 316.427 345.002 316.844C344.585 317.26 344.208 317.599 343.869 317.859C343.817 317.911 343.713 318.003 343.557 318.133C343.4 318.263 343.231 318.406 343.049 318.562C342.893 318.693 342.736 318.823 342.58 318.953C342.424 319.057 342.333 319.122 342.307 319.148C342.072 319.565 341.838 319.956 341.604 320.32C341.395 320.633 341.2 320.958 341.018 321.297C340.835 321.635 340.679 321.909 340.549 322.117C340.315 322.534 340.158 322.977 340.08 323.445C340.028 323.888 339.898 324.344 339.69 324.812C339.221 326.062 338.7 327.326 338.127 328.602C337.58 329.878 337.216 331.193 337.033 332.547C337.033 332.625 337.02 332.833 336.994 333.172C336.968 333.51 336.929 333.888 336.877 334.305C336.851 334.695 336.825 335.086 336.799 335.477C336.773 335.841 336.747 336.076 336.721 336.18L336.565 336.414C336.486 336.544 336.447 336.648 336.447 336.727V338.094V339.344C336.499 339.396 336.552 339.461 336.604 339.539C336.682 339.591 336.721 339.643 336.721 339.695C337.085 340.529 337.294 341.401 337.346 342.312C337.424 343.224 337.528 344.135 337.658 345.047C337.841 346.271 338.127 347.417 338.518 348.484C338.934 349.552 339.325 350.698 339.69 351.922C339.69 351.974 339.742 352.169 339.846 352.508C339.976 352.82 340.041 353.029 340.041 353.133C340.067 353.185 340.197 353.367 340.432 353.68C340.692 353.992 340.848 354.214 340.9 354.344C340.953 354.526 341.005 354.695 341.057 354.852C341.109 354.982 341.148 355.112 341.174 355.242C341.226 355.346 341.252 355.411 341.252 355.438C341.278 355.516 341.395 355.698 341.604 355.984C341.812 356.245 342.033 356.531 342.268 356.844C342.502 357.13 342.71 357.404 342.893 357.664C343.101 357.898 343.231 358.055 343.283 358.133L343.557 358.758C343.609 358.81 343.739 358.94 343.947 359.148C344.156 359.331 344.377 359.539 344.611 359.773C344.872 360.008 345.106 360.229 345.315 360.438C345.523 360.646 345.653 360.763 345.705 360.789C345.705 360.841 345.744 360.932 345.822 361.062C345.9 361.193 345.979 361.284 346.057 361.336ZM348.4 367C348.296 367 348.166 366.974 348.01 366.922C347.854 366.844 347.762 366.805 347.736 366.805C347.684 366.779 347.528 366.727 347.268 366.648C347.007 366.544 346.721 366.453 346.408 366.375C346.096 366.271 345.796 366.18 345.51 366.102C345.249 365.997 345.093 365.932 345.041 365.906C344.729 365.75 344.442 365.607 344.182 365.477C343.947 365.32 343.713 365.164 343.479 365.008C343.27 364.852 343.049 364.695 342.815 364.539C342.58 364.357 342.32 364.188 342.033 364.031C341.981 364.005 341.877 363.966 341.721 363.914C341.565 363.836 341.382 363.758 341.174 363.68C340.992 363.576 340.822 363.484 340.666 363.406C340.51 363.328 340.406 363.263 340.354 363.211C339.312 362.742 338.283 362.117 337.268 361.336C336.278 360.555 335.341 359.695 334.455 358.758C333.57 357.794 332.775 356.779 332.072 355.711C331.395 354.617 330.848 353.536 330.432 352.469C330.432 352.417 330.406 352.286 330.354 352.078C330.328 351.87 330.275 351.648 330.197 351.414C330.145 351.18 330.08 350.958 330.002 350.75C329.95 350.542 329.911 350.411 329.885 350.359C329.885 350.359 329.859 350.32 329.807 350.242C329.755 350.138 329.69 350.034 329.611 349.93C329.533 349.826 329.455 349.734 329.377 349.656C329.299 349.552 329.247 349.5 329.221 349.5C329.221 349.474 329.208 349.409 329.182 349.305C329.156 349.174 329.13 349.044 329.104 348.914C329.104 348.784 329.091 348.654 329.065 348.523C329.039 348.393 329.025 348.315 329.025 348.289C328.999 348.263 328.96 348.198 328.908 348.094C328.856 347.99 328.791 347.872 328.713 347.742C328.661 347.612 328.609 347.495 328.557 347.391C328.505 347.26 328.479 347.156 328.479 347.078C328.4 347 328.309 346.779 328.205 346.414C328.101 346.023 328.049 345.75 328.049 345.594C328.023 345.307 327.971 344.878 327.893 344.305C327.841 343.706 327.789 343.107 327.736 342.508C327.684 341.909 327.632 341.362 327.58 340.867C327.528 340.346 327.502 340.021 327.502 339.891V337.742C327.502 336.18 327.632 334.656 327.893 333.172C328.153 331.688 328.531 330.151 329.025 328.562C329.13 328.276 329.26 328.055 329.416 327.898C329.598 327.742 329.755 327.482 329.885 327.117C329.989 326.857 330.093 326.492 330.197 326.023C330.328 325.529 330.458 325.034 330.588 324.539C330.744 324.018 330.9 323.536 331.057 323.094C331.239 322.625 331.434 322.299 331.643 322.117L337.658 316.18C338.309 315.893 338.921 315.477 339.494 314.93C340.067 314.383 340.653 313.875 341.252 313.406C341.278 313.406 341.356 313.393 341.486 313.367C341.643 313.315 341.747 313.263 341.799 313.211C342.554 312.872 343.335 312.521 344.143 312.156C344.95 311.766 345.744 311.505 346.525 311.375C346.552 311.375 346.604 311.362 346.682 311.336C346.76 311.284 346.864 311.258 346.994 311.258C347.203 311.258 347.411 311.232 347.619 311.18C347.828 311.128 347.958 311.102 348.01 311.102C348.036 311.102 348.153 311.089 348.361 311.062C348.57 311.036 348.804 311.01 349.065 310.984C349.325 310.932 349.585 310.88 349.846 310.828C350.132 310.776 350.354 310.737 350.51 310.711C350.51 310.633 350.64 310.581 350.9 310.555C351.161 310.529 351.317 310.516 351.369 310.516C351.421 310.516 351.539 310.516 351.721 310.516C351.929 310.49 352.15 310.464 352.385 310.438C352.619 310.411 352.828 310.398 353.01 310.398C353.218 310.372 353.348 310.359 353.4 310.359C353.453 310.359 353.596 310.333 353.83 310.281C354.065 310.203 354.221 310.164 354.299 310.164H354.69C355.471 310.164 356.395 310.216 357.463 310.32C358.557 310.424 359.65 310.594 360.744 310.828C361.864 311.036 362.932 311.31 363.947 311.648C364.989 311.961 365.848 312.352 366.525 312.82C366.525 312.82 366.565 312.872 366.643 312.977C366.747 313.055 366.851 313.159 366.955 313.289C367.059 313.393 367.15 313.497 367.229 313.602C367.333 313.68 367.385 313.732 367.385 313.758C367.671 313.966 367.958 314.135 368.244 314.266C368.531 314.37 368.817 314.474 369.104 314.578C369.39 314.682 369.664 314.799 369.924 314.93C370.184 315.06 370.445 315.255 370.705 315.516C371.643 316.401 372.463 317.26 373.166 318.094C373.895 318.901 374.546 319.734 375.119 320.594C375.718 321.453 376.278 322.378 376.799 323.367C377.32 324.331 377.854 325.398 378.4 326.57C378.427 326.622 378.492 326.753 378.596 326.961C378.7 327.143 378.791 327.352 378.869 327.586C378.973 327.794 379.065 328.003 379.143 328.211C379.247 328.419 379.312 328.536 379.338 328.562C379.338 328.641 379.377 328.732 379.455 328.836C379.507 328.914 379.559 328.979 379.611 329.031C379.924 329.474 380.106 329.969 380.158 330.516C380.236 331.062 380.275 331.622 380.275 332.195C380.302 332.768 380.328 333.341 380.354 333.914C380.38 334.487 380.497 335.021 380.705 335.516C380.731 335.646 380.744 335.867 380.744 336.18C380.77 336.466 380.783 336.792 380.783 337.156C380.809 337.495 380.822 337.82 380.822 338.133C380.822 338.445 380.822 338.654 380.822 338.758C380.822 340.216 380.77 341.674 380.666 343.133C380.588 344.591 380.445 346.036 380.236 347.469C380.236 347.521 380.197 347.651 380.119 347.859C380.041 348.068 379.963 348.211 379.885 348.289C379.885 348.315 379.859 348.393 379.807 348.523C379.755 348.654 379.69 348.784 379.611 348.914C379.533 349.044 379.468 349.174 379.416 349.305C379.364 349.409 379.338 349.474 379.338 349.5C379.312 349.552 379.273 349.682 379.221 349.891C379.195 350.099 379.169 350.32 379.143 350.555C379.117 350.789 379.091 351.01 379.065 351.219C379.039 351.427 379.025 351.557 379.025 351.609C378.843 352.208 378.531 352.768 378.088 353.289C377.645 353.784 377.281 354.318 376.994 354.891C376.63 355.438 376.278 355.997 375.94 356.57C375.601 357.143 375.223 357.664 374.807 358.133C374.781 358.211 374.69 358.341 374.533 358.523C374.403 358.68 374.325 358.758 374.299 358.758C373.283 359.539 372.333 360.32 371.447 361.102C370.562 361.857 369.611 362.56 368.596 363.211C368.309 363.393 368.01 363.654 367.697 363.992C367.411 364.305 367.124 364.539 366.838 364.695C366.76 364.747 366.552 364.839 366.213 364.969C365.9 365.099 365.549 365.255 365.158 365.438C364.794 365.594 364.455 365.75 364.143 365.906C363.83 366.036 363.635 366.128 363.557 366.18C363.505 366.18 363.44 366.193 363.361 366.219C363.309 366.245 363.257 366.271 363.205 366.297C363.127 366.323 363.062 366.349 363.01 366.375C362.932 366.427 362.749 366.479 362.463 366.531C362.203 366.557 361.916 366.596 361.604 366.648C361.291 366.701 361.005 366.74 360.744 366.766C360.484 366.792 360.315 366.805 360.236 366.805C360.184 366.857 360.041 366.909 359.807 366.961C359.572 366.987 359.416 367 359.338 367C358.739 367.234 358.062 367.404 357.307 367.508C356.578 367.612 355.914 367.664 355.315 367.664C355.158 367.664 354.937 367.651 354.65 367.625C354.39 367.625 354.13 367.612 353.869 367.586C353.609 367.586 353.374 367.573 353.166 367.547C352.984 367.547 352.88 367.547 352.854 367.547C352.671 367.547 352.359 367.521 351.916 367.469C351.499 367.443 351.057 367.404 350.588 367.352C350.119 367.299 349.677 367.234 349.26 367.156C348.843 367.104 348.557 367.052 348.4 367Z" fill="black"/>
<path d="M342.981 369.212C343.124 369.319 343.374 369.48 343.733 369.695C344.126 369.874 344.538 370.089 344.968 370.34C345.398 370.555 345.791 370.77 346.15 370.984C346.543 371.163 346.812 371.307 346.955 371.414C347.027 371.486 347.152 371.629 347.331 371.844C347.51 372.059 347.636 372.166 347.707 372.166C347.779 372.238 347.922 372.327 348.137 372.435C348.387 372.506 348.549 372.578 348.62 372.649C348.656 372.649 348.746 372.667 348.889 372.703C349.068 372.739 349.247 372.775 349.426 372.811C349.605 372.811 349.784 372.828 349.963 372.864C350.142 372.9 350.249 372.918 350.285 372.918C350.321 372.954 350.411 373.025 350.554 373.133C350.733 373.24 350.894 373.348 351.037 373.455C351.216 373.562 351.377 373.652 351.521 373.724C351.664 373.795 351.753 373.831 351.789 373.831C351.861 373.831 352.004 373.849 352.219 373.885C352.47 373.921 352.666 373.938 352.81 373.938C352.953 373.938 353.15 373.921 353.4 373.885C353.651 373.849 353.848 373.831 353.991 373.831C354.027 373.831 354.135 373.813 354.314 373.777C354.493 373.742 354.69 373.706 354.904 373.67C355.155 373.598 355.388 373.545 355.603 373.509C355.817 373.473 355.961 373.455 356.032 373.455C356.82 373.312 357.59 373.24 358.342 373.24C359.13 373.24 359.882 373.204 360.598 373.133C361.314 373.061 362.012 372.918 362.692 372.703C363.373 372.452 364.017 372.023 364.626 371.414C364.626 371.342 364.68 371.235 364.787 371.092C364.93 370.913 365.056 370.734 365.163 370.555C365.306 370.34 365.432 370.161 365.539 370.018C365.647 369.874 365.7 369.785 365.7 369.749C365.844 369.606 366.13 369.337 366.56 368.943C366.989 368.549 367.437 368.12 367.902 367.654C368.368 367.189 368.798 366.777 369.192 366.419C369.621 366.025 369.89 365.774 369.997 365.667C370.57 364.951 371.036 364.199 371.394 363.411C371.788 362.588 372.217 361.818 372.683 361.102C372.79 361.03 372.951 360.833 373.166 360.511C373.417 360.153 373.542 359.956 373.542 359.92C374.258 358.452 374.903 357.037 375.476 355.677C376.084 354.28 376.604 352.902 377.033 351.541C377.463 350.145 377.803 348.73 378.054 347.298C378.304 345.866 378.43 344.344 378.43 342.732C378.43 340.477 378.269 337.916 377.946 335.052C377.66 332.187 377.177 329.323 376.496 326.458C375.816 323.558 374.939 320.8 373.864 318.187C372.826 315.573 371.537 313.37 369.997 311.58C369.89 311.508 369.711 311.383 369.46 311.204C369.209 311.025 369.048 310.9 368.977 310.828C368.977 310.685 368.923 310.452 368.816 310.13C368.744 309.772 368.672 309.539 368.601 309.432C368.565 309.432 368.475 309.36 368.332 309.217C368.189 309.074 368.028 308.912 367.849 308.733C367.706 308.554 367.544 308.393 367.365 308.25C367.222 308.071 367.115 307.946 367.043 307.874C366.363 307.301 365.629 306.854 364.841 306.531C364.053 306.209 363.265 305.851 362.478 305.457C360.974 304.633 359.488 303.935 358.02 303.362C356.552 302.789 354.904 302.503 353.078 302.503C352.04 302.503 351.019 302.646 350.017 302.933C349.05 303.219 348.029 303.506 346.955 303.792C346.382 303.971 345.791 304.293 345.183 304.759C344.574 305.224 343.947 305.743 343.303 306.316C342.694 306.889 342.103 307.462 341.53 308.035C340.957 308.608 340.438 309.074 339.973 309.432C339.901 309.503 339.758 309.629 339.543 309.808C339.328 309.987 339.095 310.184 338.845 310.398C338.63 310.577 338.415 310.757 338.2 310.936C337.985 311.079 337.86 311.168 337.824 311.204C337.502 311.777 337.18 312.314 336.858 312.815C336.571 313.245 336.303 313.693 336.052 314.158C335.801 314.624 335.586 315 335.407 315.286C335.085 315.859 334.87 316.468 334.763 317.112C334.691 317.721 334.512 318.348 334.226 318.992C333.581 320.711 332.865 322.448 332.077 324.202C331.325 325.957 330.824 327.765 330.573 329.627C330.573 329.734 330.555 330.021 330.52 330.486C330.484 330.952 330.43 331.471 330.359 332.044C330.323 332.581 330.287 333.118 330.251 333.655C330.215 334.157 330.179 334.479 330.144 334.622L329.929 334.944C329.821 335.123 329.768 335.267 329.768 335.374V337.254V338.973C329.839 339.044 329.911 339.134 329.983 339.241C330.09 339.313 330.144 339.384 330.144 339.456C330.645 340.602 330.931 341.801 331.003 343.055C331.11 344.308 331.254 345.561 331.433 346.814C331.683 348.497 332.077 350.073 332.614 351.541C333.187 353.009 333.724 354.585 334.226 356.268C334.226 356.339 334.297 356.608 334.441 357.073C334.62 357.503 334.709 357.789 334.709 357.933C334.745 358.004 334.924 358.255 335.246 358.685C335.604 359.114 335.819 359.419 335.891 359.598C335.962 359.848 336.034 360.081 336.106 360.296C336.177 360.475 336.231 360.654 336.267 360.833C336.338 360.976 336.374 361.066 336.374 361.102C336.41 361.209 336.571 361.46 336.858 361.854C337.144 362.212 337.448 362.605 337.771 363.035C338.093 363.429 338.379 363.805 338.63 364.163C338.916 364.485 339.095 364.7 339.167 364.808L339.543 365.667C339.615 365.739 339.794 365.918 340.08 366.204C340.367 366.455 340.671 366.741 340.993 367.063C341.351 367.386 341.674 367.69 341.96 367.977C342.247 368.263 342.426 368.424 342.497 368.46C342.497 368.532 342.551 368.657 342.658 368.836C342.766 369.015 342.873 369.14 342.981 369.212ZM346.203 377C346.06 377 345.881 376.964 345.666 376.893C345.451 376.785 345.326 376.731 345.29 376.731C345.219 376.696 345.004 376.624 344.646 376.517C344.288 376.373 343.894 376.248 343.464 376.141C343.034 375.997 342.623 375.872 342.229 375.765C341.871 375.621 341.656 375.532 341.584 375.496C341.154 375.281 340.761 375.084 340.402 374.905C340.08 374.69 339.758 374.476 339.436 374.261C339.149 374.046 338.845 373.831 338.523 373.616C338.2 373.366 337.842 373.133 337.448 372.918C337.377 372.882 337.234 372.828 337.019 372.757C336.804 372.649 336.553 372.542 336.267 372.435C336.016 372.291 335.783 372.166 335.568 372.059C335.354 371.951 335.21 371.862 335.139 371.79C333.706 371.146 332.292 370.286 330.896 369.212C329.535 368.138 328.246 366.956 327.028 365.667C325.811 364.342 324.719 362.946 323.752 361.478C322.821 359.974 322.069 358.488 321.496 357.02C321.496 356.948 321.46 356.769 321.389 356.482C321.353 356.196 321.281 355.892 321.174 355.569C321.102 355.247 321.013 354.943 320.905 354.656C320.834 354.37 320.78 354.191 320.744 354.119C320.744 354.119 320.708 354.065 320.637 353.958C320.565 353.815 320.476 353.672 320.368 353.528C320.261 353.385 320.153 353.26 320.046 353.152C319.939 353.009 319.867 352.938 319.831 352.938C319.831 352.902 319.813 352.812 319.777 352.669C319.742 352.49 319.706 352.311 319.67 352.132C319.67 351.953 319.652 351.774 319.616 351.595C319.581 351.416 319.563 351.308 319.563 351.272C319.527 351.237 319.473 351.147 319.401 351.004C319.33 350.861 319.24 350.7 319.133 350.521C319.061 350.341 318.99 350.18 318.918 350.037C318.846 349.858 318.811 349.715 318.811 349.607C318.703 349.5 318.578 349.196 318.435 348.694C318.291 348.157 318.22 347.781 318.22 347.566C318.184 347.173 318.112 346.582 318.005 345.794C317.933 344.97 317.862 344.147 317.79 343.323C317.719 342.5 317.647 341.748 317.575 341.067C317.504 340.351 317.468 339.904 317.468 339.725V336.771C317.468 334.622 317.647 332.527 318.005 330.486C318.363 328.445 318.882 326.333 319.563 324.148C319.706 323.755 319.885 323.45 320.1 323.235C320.35 323.021 320.565 322.662 320.744 322.161C320.887 321.803 321.031 321.302 321.174 320.657C321.353 319.977 321.532 319.297 321.711 318.616C321.926 317.9 322.141 317.238 322.356 316.629C322.606 315.984 322.875 315.537 323.161 315.286L331.433 307.122C332.328 306.728 333.169 306.155 333.957 305.403C334.745 304.651 335.551 303.953 336.374 303.309C336.41 303.309 336.517 303.291 336.696 303.255C336.911 303.183 337.054 303.112 337.126 303.04C338.164 302.575 339.239 302.091 340.349 301.59C341.459 301.053 342.551 300.695 343.625 300.516C343.661 300.516 343.733 300.498 343.84 300.462C343.947 300.39 344.091 300.354 344.27 300.354C344.556 300.354 344.843 300.319 345.129 300.247C345.415 300.175 345.595 300.14 345.666 300.14C345.702 300.14 345.863 300.122 346.15 300.086C346.436 300.05 346.758 300.014 347.116 299.979C347.474 299.907 347.832 299.835 348.191 299.764C348.584 299.692 348.889 299.638 349.104 299.603C349.104 299.495 349.283 299.424 349.641 299.388C349.999 299.352 350.214 299.334 350.285 299.334C350.357 299.334 350.518 299.334 350.769 299.334C351.055 299.298 351.359 299.262 351.682 299.227C352.004 299.191 352.29 299.173 352.541 299.173C352.828 299.137 353.007 299.119 353.078 299.119C353.15 299.119 353.347 299.083 353.669 299.012C353.991 298.904 354.206 298.851 354.314 298.851H354.851C355.925 298.851 357.196 298.922 358.664 299.065C360.168 299.209 361.672 299.441 363.176 299.764C364.716 300.05 366.184 300.426 367.58 300.892C369.012 301.321 370.194 301.858 371.125 302.503C371.125 302.503 371.179 302.575 371.286 302.718C371.429 302.825 371.573 302.968 371.716 303.147C371.859 303.291 371.984 303.434 372.092 303.577C372.235 303.685 372.307 303.756 372.307 303.792C372.701 304.078 373.095 304.311 373.488 304.49C373.882 304.633 374.276 304.777 374.67 304.92C375.064 305.063 375.44 305.224 375.798 305.403C376.156 305.582 376.514 305.851 376.872 306.209C378.161 307.426 379.289 308.608 380.256 309.754C381.259 310.864 382.154 312.01 382.942 313.191C383.765 314.373 384.535 315.644 385.251 317.005C385.967 318.33 386.701 319.798 387.453 321.409C387.489 321.481 387.579 321.66 387.722 321.946C387.865 322.197 387.99 322.483 388.098 322.806C388.241 323.092 388.366 323.379 388.474 323.665C388.617 323.951 388.706 324.113 388.742 324.148C388.742 324.256 388.796 324.381 388.903 324.524C388.975 324.632 389.047 324.721 389.118 324.793C389.548 325.402 389.799 326.082 389.87 326.834C389.978 327.586 390.031 328.356 390.031 329.144C390.067 329.931 390.103 330.719 390.139 331.507C390.175 332.295 390.336 333.029 390.622 333.709C390.658 333.888 390.676 334.192 390.676 334.622C390.712 335.016 390.73 335.464 390.73 335.965C390.765 336.43 390.783 336.878 390.783 337.308C390.783 337.737 390.783 338.024 390.783 338.167C390.783 340.172 390.712 342.177 390.568 344.183C390.461 346.188 390.264 348.175 389.978 350.145C389.978 350.216 389.924 350.395 389.817 350.682C389.709 350.968 389.602 351.165 389.494 351.272C389.494 351.308 389.458 351.416 389.387 351.595C389.315 351.774 389.226 351.953 389.118 352.132C389.011 352.311 388.921 352.49 388.85 352.669C388.778 352.812 388.742 352.902 388.742 352.938C388.706 353.009 388.653 353.188 388.581 353.475C388.545 353.761 388.51 354.065 388.474 354.388C388.438 354.71 388.402 355.014 388.366 355.301C388.331 355.587 388.313 355.766 388.313 355.838C388.062 356.661 387.632 357.431 387.024 358.147C386.415 358.828 385.914 359.562 385.52 360.35C385.018 361.102 384.535 361.871 384.069 362.659C383.604 363.447 383.085 364.163 382.512 364.808C382.476 364.915 382.351 365.094 382.136 365.345C381.957 365.56 381.849 365.667 381.814 365.667C380.417 366.741 379.11 367.815 377.893 368.89C376.675 369.928 375.368 370.895 373.972 371.79C373.578 372.041 373.166 372.399 372.736 372.864C372.343 373.294 371.949 373.616 371.555 373.831C371.447 373.903 371.161 374.028 370.695 374.207C370.266 374.386 369.782 374.601 369.245 374.852C368.744 375.066 368.278 375.281 367.849 375.496C367.419 375.675 367.15 375.8 367.043 375.872C366.971 375.872 366.882 375.89 366.775 375.926C366.703 375.962 366.631 375.997 366.56 376.033C366.452 376.069 366.363 376.105 366.291 376.141C366.184 376.212 365.933 376.284 365.539 376.355C365.181 376.391 364.787 376.445 364.358 376.517C363.928 376.588 363.534 376.642 363.176 376.678C362.818 376.714 362.585 376.731 362.478 376.731C362.406 376.803 362.209 376.875 361.887 376.946C361.565 376.982 361.35 377 361.242 377C360.419 377.322 359.488 377.555 358.449 377.698C357.447 377.841 356.534 377.913 355.71 377.913C355.495 377.913 355.191 377.895 354.797 377.859C354.439 377.859 354.081 377.841 353.723 377.806C353.365 377.806 353.042 377.788 352.756 377.752C352.505 377.752 352.362 377.752 352.326 377.752C352.076 377.752 351.646 377.716 351.037 377.645C350.464 377.609 349.856 377.555 349.211 377.483C348.567 377.412 347.958 377.322 347.385 377.215C346.812 377.143 346.418 377.072 346.203 377Z" fill="black"/>
<path d="M352.338 382.131C352.57 382.206 352.965 382.303 353.522 382.421C354.109 382.477 354.735 382.572 355.401 382.704C356.05 382.791 356.653 382.893 357.21 383.012C357.798 383.068 358.207 383.133 358.44 383.208C358.564 383.269 358.789 383.398 359.115 383.596C359.441 383.793 359.65 383.876 359.743 383.845C359.867 383.905 360.091 383.957 360.416 384C360.771 383.982 361.01 384.002 361.135 384.063C361.181 384.047 361.304 384.031 361.505 384.013C361.751 383.98 361.998 383.947 362.245 383.914C362.476 383.834 362.715 383.778 362.961 383.745C363.208 383.711 363.355 383.687 363.401 383.671C363.463 383.701 363.61 383.754 363.842 383.829C364.121 383.888 364.376 383.955 364.609 384.03C364.887 384.089 365.135 384.133 365.351 384.162C365.568 384.191 365.699 384.198 365.745 384.182C365.837 384.15 366.03 384.109 366.323 384.06C366.662 383.995 366.924 383.931 367.109 383.868C367.293 383.804 367.539 383.694 367.847 383.536C368.154 383.379 368.4 383.269 368.585 383.205C368.631 383.189 368.761 383.119 368.976 382.993C369.191 382.867 369.43 382.734 369.691 382.592C369.982 382.389 370.259 382.216 370.52 382.075C370.781 381.934 370.958 381.847 371.05 381.815C372.002 381.281 372.963 380.848 373.933 380.514C374.949 380.165 375.903 379.785 376.794 379.375C377.686 378.965 378.523 378.471 379.305 377.892C380.071 377.267 380.712 376.427 381.227 375.373C381.195 375.28 381.217 375.118 381.292 374.886C381.397 374.591 381.479 374.305 381.538 374.026C381.628 373.686 381.71 373.399 381.785 373.167C381.86 372.935 381.89 372.795 381.874 372.749C381.995 372.501 382.245 372.028 382.625 371.329C383.004 370.631 383.391 369.878 383.785 369.071C384.178 368.265 384.55 367.543 384.899 366.907C385.278 366.208 385.514 365.766 385.604 365.58C386.026 364.402 386.293 363.226 386.405 362.052C386.548 360.815 386.76 359.632 387.043 358.502C387.15 358.362 387.27 358.036 387.404 357.526C387.569 356.953 387.643 356.643 387.627 356.597C387.9 354.386 388.104 352.277 388.239 350.268C388.405 348.197 388.463 346.189 388.414 344.244C388.349 342.253 388.16 340.278 387.848 338.32C387.536 336.362 387.023 334.344 386.309 332.266C385.308 329.357 383.965 326.127 382.279 322.576C380.64 319.009 378.746 315.529 376.599 312.137C374.435 308.699 372.081 305.532 369.537 302.638C367.039 299.728 364.4 297.459 361.621 295.833C361.45 295.789 361.164 295.707 360.761 295.587C360.359 295.467 360.095 295.377 359.971 295.316C359.908 295.132 359.735 294.855 359.454 294.487C359.203 294.057 359.007 293.789 358.867 293.682C358.821 293.698 358.674 293.645 358.426 293.524C358.177 293.403 357.898 293.267 357.588 293.115C357.324 292.948 357.045 292.812 356.75 292.706C356.486 292.539 356.292 292.425 356.168 292.364C355.037 291.927 353.892 291.676 352.733 291.609C351.574 291.543 350.399 291.431 349.209 291.272C346.904 290.877 344.679 290.635 342.531 290.548C340.384 290.46 338.133 290.821 335.778 291.631C334.439 292.091 333.187 292.728 332.021 293.542C330.901 294.34 329.712 295.162 328.454 296.008C327.795 296.493 327.176 297.171 326.597 298.041C326.019 298.911 325.441 299.858 324.864 300.883C324.333 301.892 323.825 302.892 323.34 303.885C322.855 304.878 322.392 305.709 321.951 306.377C321.89 306.501 321.761 306.726 321.563 307.052C321.366 307.378 321.153 307.735 320.925 308.124C320.727 308.45 320.53 308.776 320.332 309.102C320.119 309.382 319.997 309.553 319.966 309.615C319.805 310.497 319.627 311.332 319.434 312.122C319.255 312.803 319.107 313.499 318.991 314.21C318.874 314.922 318.763 315.502 318.66 315.951C318.498 316.832 318.491 317.713 318.638 318.591C318.816 319.408 318.863 320.296 318.779 321.254C318.71 323.756 318.557 326.313 318.319 328.925C318.127 331.521 318.283 334.075 318.785 336.587C318.833 336.726 318.937 337.103 319.097 337.719C319.257 338.335 319.418 339.029 319.58 339.799C319.772 340.508 319.964 341.216 320.156 341.925C320.332 342.587 320.429 343.018 320.446 343.219L320.312 343.73C320.253 344.008 320.247 344.217 320.295 344.355L321.128 346.779L321.89 348.996C322.015 349.056 322.147 349.14 322.287 349.247C322.457 349.292 322.558 349.36 322.59 349.452C323.744 350.708 324.646 352.128 325.294 353.712C325.988 355.28 326.728 356.833 327.515 358.37C328.584 360.429 329.791 362.286 331.135 363.941C332.524 365.58 333.916 367.373 335.308 369.321C335.34 369.414 335.551 369.728 335.943 370.265C336.364 370.74 336.606 371.069 336.67 371.254C336.748 371.33 337.09 371.574 337.696 371.986C338.348 372.381 338.76 372.678 338.932 372.877C339.136 373.169 339.331 373.437 339.519 373.682C339.69 373.881 339.839 374.088 339.965 374.303C340.121 374.456 340.206 374.556 340.222 374.602C340.316 374.725 340.635 374.977 341.179 375.357C341.707 375.692 342.274 376.065 342.881 376.476C343.471 376.841 344.007 377.199 344.489 377.55C345.001 377.838 345.327 378.036 345.467 378.143L346.333 379.084C346.457 379.145 346.768 379.296 347.264 379.539C347.744 379.735 348.264 379.969 348.822 380.242C349.427 380.499 349.978 380.748 350.474 380.991C350.97 381.233 351.273 381.361 351.381 381.376C351.413 381.468 351.538 381.606 351.756 381.789C351.973 381.972 352.168 382.086 352.338 382.131ZM359.947 390.745C359.762 390.809 359.516 390.842 359.207 390.845C358.882 390.801 358.697 390.788 358.65 390.804C358.542 390.789 358.233 390.792 357.724 390.812C357.199 390.786 356.635 390.799 356.034 390.852C355.416 390.857 354.829 390.878 354.274 390.914C353.749 390.889 353.432 390.868 353.324 390.854C352.674 390.767 352.079 390.688 351.538 390.616C351.027 390.482 350.516 390.348 350.005 390.214C349.541 390.064 349.053 389.922 348.542 389.787C348.015 389.607 347.45 389.466 346.847 389.363C346.739 389.349 346.531 389.343 346.222 389.346C345.897 389.303 345.526 389.275 345.109 389.264C344.722 389.19 344.367 389.132 344.042 389.089C343.717 389.045 343.493 388.994 343.369 388.933C341.236 388.737 339.031 388.256 336.754 387.49C334.523 386.708 332.337 385.756 330.195 384.634C328.038 383.465 326.01 382.148 324.113 380.684C322.245 379.157 320.617 377.575 319.227 375.936C319.195 375.843 319.069 375.628 318.85 375.291C318.677 374.937 318.45 374.576 318.168 374.208C317.933 373.825 317.682 373.472 317.417 373.15C317.198 372.812 317.049 372.605 316.971 372.529C316.971 372.529 316.901 372.475 316.761 372.369C316.605 372.216 316.426 372.071 316.224 371.934C316.022 371.797 315.828 371.683 315.642 371.592C315.44 371.455 315.316 371.394 315.27 371.41C315.254 371.364 315.191 371.256 315.081 371.088C314.956 370.873 314.83 370.658 314.704 370.443C314.625 370.212 314.523 369.989 314.397 369.774C314.271 369.559 314.201 369.428 314.185 369.382C314.123 369.352 314.014 369.26 313.858 369.107C313.702 368.954 313.515 368.786 313.297 368.603C313.126 368.404 312.962 368.228 312.806 368.075C312.634 367.876 312.525 367.707 312.477 367.568C312.291 367.477 311.994 367.141 311.587 366.558C311.164 365.928 310.905 365.475 310.81 365.198C310.589 364.706 310.235 363.976 309.747 363.008C309.289 361.978 308.832 360.947 308.374 359.917C307.917 358.887 307.491 357.949 307.097 357.104C306.687 356.212 306.442 355.65 306.363 355.42L305.053 351.61C304.1 348.84 303.402 346.059 302.959 343.268C302.516 340.478 302.249 337.523 302.157 334.405C302.167 333.833 302.263 333.362 302.445 332.989C302.673 332.601 302.791 332.044 302.8 331.318C302.826 330.793 302.788 330.083 302.687 329.188C302.616 328.232 302.545 327.275 302.475 326.318C302.434 325.3 302.417 324.35 302.425 323.47C302.462 322.527 302.61 321.831 302.868 321.381L309.914 307.185C310.894 306.281 311.725 305.169 312.407 303.85C313.09 302.531 313.819 301.273 314.595 300.077C314.641 300.061 314.772 299.99 314.987 299.864C315.232 299.677 315.385 299.521 315.446 299.397C316.578 298.336 317.749 297.236 318.958 296.098C320.152 294.913 321.401 293.967 322.707 293.26C322.753 293.244 322.838 293.189 322.96 293.095C323.067 292.955 323.236 292.846 323.467 292.766C323.836 292.639 324.19 292.466 324.527 292.247C324.865 292.027 325.08 291.902 325.172 291.87C325.218 291.854 325.418 291.759 325.772 291.586C326.125 291.413 326.525 291.224 326.971 291.019C327.401 290.768 327.831 290.517 328.261 290.266C328.737 289.999 329.106 289.794 329.367 289.653C329.319 289.514 329.518 289.343 329.964 289.138C330.41 288.933 330.679 288.814 330.771 288.783C330.864 288.751 331.072 288.679 331.395 288.568C331.748 288.395 332.125 288.214 332.525 288.025C332.924 287.836 333.286 287.686 333.609 287.575C333.962 287.401 334.185 287.299 334.278 287.267C334.37 287.235 334.608 287.102 334.992 286.867C335.36 286.585 335.613 286.421 335.752 286.373L336.444 286.135C337.83 285.659 339.501 285.187 341.457 284.721C343.46 284.239 345.503 283.872 347.585 283.621C349.697 283.307 351.757 283.141 353.764 283.122C355.802 283.041 357.564 283.21 359.05 283.628C359.05 283.628 359.151 283.697 359.353 283.834C359.586 283.909 359.834 284.03 360.098 284.197C360.346 284.318 360.571 284.448 360.773 284.585C361.006 284.66 361.13 284.72 361.146 284.766C361.78 284.961 362.392 285.087 362.979 285.143C363.55 285.153 364.122 285.163 364.693 285.173C365.265 285.183 365.821 285.224 366.362 285.296C366.903 285.368 367.484 285.556 368.105 285.859C370.307 286.857 372.285 287.881 374.04 288.93C375.825 289.916 377.487 290.997 379.027 292.171C380.613 293.33 382.17 294.628 383.697 296.065C385.208 297.456 386.805 299.023 388.489 300.768C388.567 300.844 388.762 301.035 389.074 301.341C389.37 301.601 389.658 301.915 389.94 302.283C390.251 302.589 390.54 302.903 390.806 303.224C391.117 303.53 391.304 303.698 391.366 303.729C391.414 303.867 391.539 304.005 391.741 304.142C391.881 304.249 392.013 304.332 392.137 304.393C392.961 304.987 393.586 305.754 394.012 306.691C394.484 307.613 394.894 308.582 395.243 309.598C395.639 310.598 396.034 311.598 396.43 312.598C396.825 313.598 397.359 314.473 398.03 315.223C398.155 315.438 398.313 315.823 398.504 316.377C398.725 316.869 398.946 317.438 399.169 318.085C399.421 318.669 399.643 319.238 399.833 319.793C400.024 320.347 400.151 320.716 400.214 320.901C401.104 323.487 401.9 326.104 402.605 328.753C403.356 331.387 403.983 334.037 404.487 336.703C404.518 336.796 404.529 337.05 404.517 337.467C404.506 337.884 404.454 338.186 404.363 338.372C404.379 338.418 404.381 338.573 404.368 338.835C404.355 339.098 404.319 339.369 404.26 339.647C404.201 339.926 404.165 340.196 404.152 340.459C404.123 340.675 404.116 340.807 404.132 340.853C404.118 340.961 404.128 341.216 404.163 341.617C404.243 342.002 404.332 342.41 404.429 342.842C404.526 343.273 404.614 343.682 404.695 344.067C404.776 344.452 404.832 344.691 404.864 344.783C404.906 345.957 404.693 347.14 404.226 348.333C403.743 349.481 403.422 350.649 403.263 351.84C402.95 353.032 402.668 354.239 402.417 355.461C402.166 356.683 401.814 357.837 401.361 358.922C401.363 359.077 401.281 359.363 401.115 359.782C400.979 360.138 400.888 360.324 400.842 360.34C399.518 362.345 398.309 364.309 397.215 366.234C396.105 368.113 394.849 369.94 393.445 371.713C393.048 372.211 392.676 372.855 392.328 373.646C392.011 374.375 391.646 374.965 391.233 375.417C391.126 375.557 390.813 375.846 390.292 376.283C389.817 376.704 389.289 377.196 388.708 377.757C388.156 378.256 387.651 378.74 387.193 379.207C386.718 379.629 386.427 379.91 386.32 380.05C386.228 380.081 386.12 380.144 385.998 380.238C385.921 380.316 385.845 380.394 385.768 380.472C385.646 380.565 385.546 380.651 385.47 380.729C385.363 380.869 385.072 381.073 384.595 381.34C384.15 381.545 383.665 381.789 383.143 382.072C382.621 382.354 382.137 382.598 381.691 382.803C381.245 383.008 380.953 383.135 380.814 383.182C380.754 383.306 380.531 383.486 380.148 383.721C379.748 383.91 379.479 384.029 379.34 384.076C378.421 384.857 377.324 385.57 376.048 386.215C374.819 386.844 373.673 387.342 372.611 387.707C372.334 387.802 371.934 387.914 371.41 388.042C370.948 388.201 370.479 388.337 370.001 388.45C369.539 388.608 369.116 388.728 368.73 388.809C368.407 388.92 368.222 388.984 368.176 389C367.853 389.111 367.283 389.255 366.466 389.433C365.712 389.641 364.903 389.841 364.04 390.035C363.177 390.228 362.352 390.383 361.566 390.498C360.795 390.66 360.256 390.742 359.947 390.745Z" fill="black"/>
<path d="M333.731 392.582C333.993 392.774 334.452 393.062 335.107 393.446C335.826 393.764 336.579 394.147 337.365 394.595C338.15 394.977 338.871 395.36 339.526 395.744C340.245 396.062 340.736 396.317 340.999 396.51C341.13 396.639 341.361 396.897 341.69 397.284C342.02 397.671 342.25 397.864 342.38 397.863C342.512 397.992 342.774 398.152 343.166 398.343C343.623 398.468 343.918 398.595 344.049 398.724C344.114 398.724 344.278 398.754 344.539 398.817C344.865 398.878 345.191 398.94 345.517 399.002C345.843 398.998 346.168 399.028 346.495 399.089C346.821 399.151 347.016 399.182 347.082 399.181C347.147 399.245 347.311 399.374 347.574 399.566C347.901 399.758 348.196 399.95 348.459 400.143C348.786 400.335 349.081 400.495 349.343 400.622C349.605 400.75 349.768 400.813 349.833 400.812C349.963 400.811 350.224 400.841 350.615 400.902C351.072 400.962 351.43 400.991 351.691 400.988C351.951 400.986 352.309 400.949 352.764 400.879C353.219 400.81 353.576 400.773 353.837 400.771C353.902 400.77 354.097 400.735 354.422 400.667C354.747 400.598 355.104 400.529 355.494 400.46C355.948 400.325 356.37 400.223 356.76 400.154C357.15 400.085 357.41 400.05 357.54 400.048C358.97 399.773 360.368 399.628 361.735 399.614C363.168 399.599 364.534 399.519 365.835 399.376C367.135 399.232 368.402 398.958 369.635 398.555C370.867 398.086 372.031 397.293 373.126 396.174C373.124 396.044 373.22 395.848 373.413 395.585C373.67 395.257 373.894 394.929 374.086 394.602C374.342 394.208 374.567 393.881 374.759 393.618C374.952 393.356 375.048 393.192 375.047 393.127C375.305 392.864 375.821 392.37 376.594 391.646C377.368 390.921 378.174 390.132 379.011 389.277C379.849 388.421 380.622 387.665 381.331 387.006C382.105 386.282 382.589 385.821 382.782 385.624C383.81 384.311 384.642 382.935 385.278 381.496C385.978 379.991 386.745 378.583 387.578 377.272C387.772 377.14 388.061 376.779 388.445 376.189C388.894 375.533 389.118 375.173 389.118 375.108C390.392 372.425 391.537 369.841 392.553 367.357C393.633 364.806 394.551 362.29 395.306 359.808C396.061 357.261 396.652 354.683 397.081 352.074C397.509 349.465 397.708 346.696 397.678 343.767C397.635 339.665 397.293 335.014 396.653 329.812C396.078 324.609 395.144 319.41 393.853 314.215C392.561 308.955 390.914 303.959 388.911 299.227C386.974 294.494 384.588 290.515 381.755 287.289C381.558 287.161 381.23 286.937 380.771 286.616C380.312 286.295 380.017 286.07 379.885 285.941C379.883 285.681 379.78 285.259 379.579 284.675C379.442 284.025 379.307 283.604 379.175 283.41C379.11 283.41 378.946 283.282 378.683 283.024C378.42 282.766 378.124 282.477 377.795 282.155C377.531 281.832 377.235 281.542 376.907 281.285C376.643 280.962 376.445 280.736 376.314 280.607C375.066 279.579 373.723 278.779 372.285 278.208C370.846 277.637 369.407 277.001 367.967 276.3C365.218 274.831 362.503 273.59 359.823 272.576C357.143 271.562 354.143 271.073 350.822 271.107C348.935 271.127 347.082 271.407 345.265 271.947C343.512 272.486 341.662 273.026 339.715 273.567C338.677 273.904 337.608 274.501 336.511 275.359C335.413 276.217 334.283 277.172 333.122 278.226C332.027 279.279 330.963 280.332 329.933 281.385C328.902 282.437 327.967 283.293 327.127 283.953C326.998 284.085 326.74 284.315 326.353 284.645C325.966 284.975 325.547 285.337 325.095 285.732C324.708 286.062 324.32 286.392 323.933 286.721C323.545 286.986 323.319 287.151 323.255 287.217C322.68 288.264 322.104 289.247 321.528 290.164C321.015 290.951 320.535 291.77 320.088 292.621C319.642 293.472 319.258 294.16 318.938 294.684C318.363 295.732 317.984 296.842 317.801 298.016C317.682 299.124 317.369 300.267 316.86 301.444C315.721 304.581 314.452 307.752 313.053 310.957C311.719 314.161 310.842 317.458 310.422 320.848C310.424 321.044 310.397 321.565 310.34 322.412C310.284 323.259 310.196 324.204 310.077 325.247C310.022 326.224 309.967 327.201 309.912 328.178C309.857 329.09 309.798 329.677 309.735 329.938L309.351 330.528C309.159 330.856 309.064 331.117 309.066 331.312L309.102 334.73L309.134 337.855C309.266 337.984 309.398 338.145 309.53 338.339C309.727 338.467 309.826 338.597 309.827 338.727C310.76 340.8 311.304 342.976 311.458 345.253C311.677 347.53 311.961 349.805 312.31 352.08C312.798 355.135 313.544 357.992 314.549 360.651C315.618 363.31 316.624 366.164 317.568 369.214C317.569 369.344 317.704 369.831 317.974 370.675C318.307 371.452 318.476 371.972 318.478 372.232C318.545 372.361 318.875 372.814 319.469 373.589C320.128 374.363 320.525 374.913 320.658 375.237C320.793 375.691 320.928 376.113 321.062 376.502C321.196 376.826 321.297 377.151 321.365 377.476C321.498 377.735 321.565 377.897 321.566 377.962C321.633 378.156 321.93 378.609 322.459 379.32C322.986 379.965 323.547 380.676 324.141 381.451C324.735 382.161 325.263 382.839 325.725 383.485C326.252 384.066 326.582 384.453 326.714 384.647L327.414 386.202C327.545 386.331 327.874 386.653 328.4 387.168C328.926 387.619 329.485 388.134 330.077 388.713C330.734 389.292 331.326 389.84 331.852 390.355C332.378 390.87 332.707 391.16 332.838 391.224C332.839 391.354 332.939 391.581 333.138 391.904C333.336 392.228 333.534 392.453 333.731 392.582ZM339.738 406.68C339.477 406.683 339.151 406.621 338.759 406.495C338.366 406.303 338.138 406.208 338.072 406.209C337.942 406.145 337.55 406.019 336.897 405.831C336.243 405.577 335.524 405.357 334.741 405.169C333.957 404.917 333.206 404.697 332.488 404.509C331.834 404.256 331.442 404.097 331.311 404.033C330.526 403.651 329.806 403.3 329.152 402.982C328.562 402.597 327.972 402.213 327.382 401.828C326.857 401.443 326.299 401.058 325.709 400.674C325.119 400.224 324.463 399.808 323.743 399.425C323.612 399.361 323.351 399.266 322.959 399.14C322.566 398.949 322.108 398.758 321.586 398.568C321.127 398.313 320.702 398.089 320.309 397.898C319.916 397.707 319.654 397.547 319.523 397.418C316.906 396.273 314.319 394.738 311.759 392.811C309.265 390.884 306.899 388.76 304.661 386.44C302.422 384.054 300.41 381.536 298.625 378.885C296.904 376.168 295.508 373.481 294.439 370.823C294.437 370.693 294.369 370.368 294.233 369.848C294.163 369.328 294.027 368.776 293.825 368.192C293.689 367.608 293.521 367.056 293.32 366.537C293.184 366.018 293.083 365.693 293.017 365.564C293.017 365.564 292.951 365.467 292.818 365.273C292.685 365.014 292.52 364.755 292.322 364.497C292.124 364.239 291.926 364.013 291.729 363.819C291.531 363.561 291.399 363.432 291.334 363.433C291.333 363.368 291.299 363.205 291.231 362.946C291.163 362.621 291.094 362.296 291.026 361.971C291.022 361.646 290.987 361.321 290.918 360.996C290.85 360.671 290.815 360.476 290.814 360.411C290.749 360.346 290.649 360.185 290.516 359.926C290.383 359.667 290.217 359.375 290.019 359.052C289.885 358.728 289.752 358.436 289.619 358.177C289.485 357.853 289.418 357.593 289.416 357.398C289.218 357.205 288.985 356.654 288.715 355.745C288.444 354.771 288.307 354.089 288.303 353.698C288.23 352.983 288.089 351.91 287.878 350.48C287.733 348.984 287.587 347.488 287.441 345.992C287.295 344.496 287.151 343.13 287.007 341.895C286.864 340.594 286.79 339.781 286.787 339.456L286.731 334.085C286.69 330.179 286.975 326.367 287.588 322.65C288.2 318.932 289.104 315.081 290.299 311.097C290.552 310.378 290.872 309.822 291.258 309.427C291.71 309.031 292.094 308.376 292.41 307.462C292.663 306.808 292.914 305.894 293.163 304.719C293.475 303.479 293.788 302.239 294.1 300.998C294.477 299.692 294.855 298.484 295.234 297.373C295.678 296.196 296.158 295.378 296.674 294.916L311.557 279.916C313.177 279.183 314.696 278.126 316.114 276.744C317.532 275.362 318.983 274.077 320.468 272.889C320.533 272.889 320.728 272.854 321.053 272.786C321.442 272.651 321.702 272.518 321.83 272.387C323.709 271.521 325.653 270.622 327.662 269.689C329.67 268.691 331.649 268.02 333.598 267.674C333.663 267.673 333.793 267.639 333.988 267.572C334.182 267.44 334.441 267.372 334.767 267.369C335.288 267.363 335.808 267.293 336.327 267.157C336.847 267.021 337.172 266.953 337.302 266.952C337.367 266.951 337.659 266.915 338.18 266.845C338.7 266.774 339.285 266.703 339.935 266.631C340.585 266.494 341.235 266.357 341.884 266.22C342.599 266.082 343.151 265.979 343.541 265.91C343.539 265.714 343.863 265.581 344.514 265.509C345.164 265.437 345.554 265.4 345.684 265.399C345.815 265.398 346.108 265.395 346.563 265.39C347.083 265.319 347.636 265.248 348.221 265.177C348.807 265.106 349.327 265.068 349.783 265.063C350.303 264.993 350.628 264.957 350.758 264.955C350.888 264.954 351.246 264.885 351.83 264.749C352.414 264.547 352.804 264.446 352.999 264.444L353.976 264.434C355.929 264.413 358.241 264.519 360.913 264.752C363.65 264.984 366.388 265.378 369.129 265.936C371.934 266.427 374.61 267.083 377.158 267.903C379.77 268.657 381.928 269.611 383.633 270.765C383.633 270.765 383.732 270.894 383.93 271.152C384.193 271.345 384.456 271.603 384.72 271.925C384.983 272.183 385.213 272.441 385.411 272.699C385.674 272.892 385.805 273.021 385.806 273.086C386.528 273.599 387.248 274.015 387.968 274.333C388.686 274.586 389.405 274.839 390.124 275.092C390.843 275.345 391.529 275.631 392.184 275.949C392.838 276.268 393.494 276.749 394.152 277.394C396.519 279.583 398.592 281.709 400.372 283.774C402.215 285.773 403.865 287.84 405.319 289.973C406.839 292.106 408.263 294.402 409.591 296.862C410.918 299.257 412.28 301.913 413.678 304.828C413.745 304.957 413.911 305.281 414.176 305.799C414.442 306.252 414.675 306.771 414.876 307.355C415.142 307.873 415.376 308.391 415.576 308.91C415.842 309.428 416.008 309.719 416.074 309.784C416.076 309.979 416.176 310.206 416.374 310.464C416.506 310.658 416.638 310.819 416.769 310.948C417.562 312.047 418.031 313.279 418.175 314.645C418.385 316.01 418.497 317.408 418.512 318.841C418.592 320.272 418.672 321.704 418.752 323.135C418.832 324.567 419.139 325.898 419.673 327.13C419.741 327.455 419.78 328.008 419.788 328.789C419.861 329.504 419.902 330.318 419.911 331.229C419.985 332.075 420.026 332.888 420.034 333.669C420.042 334.451 420.048 334.971 420.051 335.232C420.089 338.877 419.997 342.524 419.774 346.173C419.617 349.82 419.297 353.437 418.813 357.023C418.815 357.153 418.72 357.48 418.53 358.003C418.341 358.526 418.149 358.886 417.956 359.083C417.956 359.148 417.893 359.344 417.767 359.671C417.64 359.998 417.48 360.325 417.289 360.653C417.097 360.98 416.937 361.307 416.81 361.634C416.683 361.896 416.62 362.059 416.62 362.125C416.557 362.255 416.462 362.582 416.338 363.104C416.278 363.626 416.219 364.18 416.16 364.766C416.101 365.353 416.041 365.907 415.982 366.428C415.922 366.95 415.893 367.276 415.894 367.406C415.454 368.908 414.687 370.316 413.594 371.629C412.501 372.878 411.603 374.222 410.902 375.662C410.005 377.038 409.141 378.447 408.309 379.888C407.478 381.329 406.548 382.641 405.518 383.824C405.455 384.02 405.231 384.348 404.845 384.807C404.523 385.201 404.33 385.399 404.265 385.399C401.746 387.379 399.391 389.357 397.198 391.333C395.004 393.244 392.646 395.026 390.124 396.68C389.413 397.144 388.671 397.802 387.899 398.657C387.191 399.446 386.481 400.039 385.769 400.437C385.575 400.569 385.056 400.803 384.213 401.137C383.436 401.471 382.561 401.87 381.589 402.336C380.682 402.736 379.84 403.136 379.062 403.535C378.285 403.868 377.799 404.101 377.605 404.233C377.475 404.235 377.312 404.269 377.118 404.336C376.988 404.403 376.858 404.469 376.729 404.536C376.534 404.603 376.372 404.67 376.243 404.736C376.049 404.868 375.594 405.003 374.88 405.141C374.229 405.213 373.514 405.318 372.734 405.456C371.955 405.595 371.24 405.7 370.589 405.772C369.939 405.844 369.516 405.881 369.321 405.883C369.192 406.014 368.835 406.148 368.251 406.284C367.665 406.356 367.275 406.392 367.08 406.394C365.589 406.996 363.9 407.437 362.015 407.717C360.195 407.996 358.536 408.144 357.039 408.159C356.649 408.163 356.095 408.137 355.378 408.079C354.727 408.086 354.076 408.06 353.424 408.002C352.773 408.009 352.187 407.982 351.665 407.923C351.21 407.927 350.949 407.93 350.884 407.931C350.428 407.935 349.647 407.878 348.538 407.76C347.496 407.706 346.388 407.62 345.215 407.502C344.042 407.384 342.934 407.232 341.89 407.048C340.847 406.929 340.13 406.806 339.738 406.68Z" fill="black"/>
</svg>
